STARTFONT 2.1
COMMENT  
COMMENT  Copyright (c) 1984, 1987 Adobe Systems Incorporated. All Rights Reserved. Copyright (c) 1988, 1991 Digital Equipment Corporation. All Rights Reserved.
COMMENT  
COMMENT  WARNING:  This bdf file was generated from a font server using
COMMENT  fstobdf.  The resulting font is subject to the same copyright,
COMMENT  license, and trademark restrictions as the original font.  The
COMMENT  authors and distributors of fstobdf disclaim all liability for
COMMENT  misuse of the program or its output.
COMMENT  
FONT -Adobe-Helvetica-Bold-R-Normal--18-180-75-75-P-103-ISO8859-1
SIZE 18 75 75
FONTBOUNDINGBOX 18 23 -1 -5
STARTPROPERTIES 32
FOUNDRY "Adobe"
FAMILY_NAME "Helvetica"
WEIGHT_NAME "Bold"
SLANT "R"
SETWIDTH_NAME "Normal"
ADD_STYLE_NAME ""
PIXEL_SIZE 18
POINT_SIZE 180
RESOLUTION_X 75
RESOLUTION_Y 75
SPACING "P"
AVERAGE_WIDTH 103
CHARSET_REGISTRY "ISO8859"
CHARSET_ENCODING "1"
CAP_HEIGHT 14
X_HEIGHT 10
FACE_NAME "Helvetica Bold"
COPYRIGHT "Copyright (c) 1984, 1987 Adobe Systems Incorporated. All Rights Reserved. Copyright (c) 1988, 1991 Digital Equipment Corporation. All Rights Reserved."
NOTICE "Helvetica is a trademark of Linotype-Hell AG and/or its subsidiaries.  "
_DEC_DEVICE_FONTNAMES "PS=Helvetica-Bold"
_DEC_PRODUCTINFO "DECwindows Fonts V2.2, 07-Nov-1991"
RELATIVE_SETWIDTH 50
RELATIVE_WEIGHT 70
CHARSET_COLLECTIONS "ASCII ISO8859-1 ADOBE-STANDARD"
FULL_NAME "Helvetica Bold"
FONT "-Adobe-Helvetica-Bold-R-Normal--18-180-75-75-P-103-ISO8859-1"
WEIGHT 10
RESOLUTION 103
QUAD_WIDTH 11
DEFAULT_CHAR 32
FONT_ASCENT 16
FONT_DESCENT 5
ENDPROPERTIES
CHARS 191
STARTCHAR space
ENCODING 32
SWIDTH 266 0
DWIDTH 5 0
BBX 1 1 0 0
BITMAP
00
ENDCHAR
STARTCHAR exclam
ENCODING 33
SWIDTH 266 0
DWIDTH 5 0
BBX 3 14 1 0
BITMAP
e0
e0
e0
e0
e0
e0
e0
e0
c0
c0
00
e0
e0
e0
ENDCHAR
STARTCHAR quotedbl
ENCODING 34
SWIDTH 426 0
DWIDTH 8 0
BBX 5 5 2 9
BITMAP
d8
d8
d8
d8
90
ENDCHAR
STARTCHAR numbersign
ENCODING 35
SWIDTH 586 0
DWIDTH 11 0
BBX 11 13 0 0
BITMAP
0d80
0d80
0d80
7fe0
7fe0
1b00
1b00
1b00
ffc0
ffc0
3600
3600
3600
ENDCHAR
STARTCHAR dollar
ENCODING 36
SWIDTH 533 0
DWIDTH 10 0
BBX 9 16 0 -2
BITMAP
0800
3e00
7f00
eb80
eb80
e800
7800
3e00
0f00
0b80
eb80
eb80
7f00
3e00
0800
0800
ENDCHAR
STARTCHAR percent
ENCODING 37
SWIDTH 853 0
DWIDTH 16 0
BBX 13 13 1 0
BITMAP
7860
fc60
ccc0
cc80
fd80
7b00
0200
06f0
0df8
0998
1998
31f8
30f0
ENDCHAR
STARTCHAR ampersand
ENCODING 38
SWIDTH 746 0
DWIDTH 14 0
BBX 13 13 1 0
BITMAP
3e00
7f00
6300
7300
3e00
7c60
ee60
c7e0
c3c0
c1c0
e3e0
7f70
3e78
ENDCHAR
STARTCHAR apostrophe
ENCODING 39
SWIDTH 266 0
DWIDTH 5 0
BBX 3 5 1 9
BITMAP
e0
e0
60
60
c0
ENDCHAR
STARTCHAR parenleft
ENCODING 40
SWIDTH 373 0
DWIDTH 7 0
BBX 6 18 0 -4
BITMAP
1c
38
30
70
60
e0
e0
e0
e0
e0
e0
e0
e0
60
70
30
38
1c
ENDCHAR
STARTCHAR parenright
ENCODING 41
SWIDTH 373 0
DWIDTH 7 0
BBX 6 18 1 -4
BITMAP
e0
70
30
38
18
1c
1c
1c
1c
1c
1c
1c
1c
18
38
30
70
e0
ENDCHAR
STARTCHAR asterisk
ENCODING 42
SWIDTH 480 0
DWIDTH 9 0
BBX 7 6 1 8
BITMAP
10
d6
7c
38
6c
44
ENDCHAR
STARTCHAR plus
ENCODING 43
SWIDTH 586 0
DWIDTH 11 0
BBX 9 8 1 1
BITMAP
1c00
1c00
1c00
ff80
ff80
1c00
1c00
1c00
ENDCHAR
STARTCHAR comma
ENCODING 44
SWIDTH 266 0
DWIDTH 5 0
BBX 3 5 1 -2
BITMAP
e0
e0
e0
60
c0
ENDCHAR
STARTCHAR minus
ENCODING 45
SWIDTH 586 0
DWIDTH 11 0
BBX 9 2 1 4
BITMAP
ff80
ff80
ENDCHAR
STARTCHAR period
ENCODING 46
SWIDTH 266 0
DWIDTH 5 0
BBX 3 3 1 0
BITMAP
e0
e0
e0
ENDCHAR
STARTCHAR slash
ENCODING 47
SWIDTH 266 0
DWIDTH 5 0
BBX 5 14 0 0
BITMAP
18
18
18
10
30
30
30
20
60
60
40
c0
c0
c0
ENDCHAR
STARTCHAR 0
ENCODING 48
SWIDTH 533 0
DWIDTH 10 0
BBX 9 13 0 0
BITMAP
1c00
7f00
7700
e380
e380
e380
e380
e380
e380
e380
7700
7f00
1c00
ENDCHAR
STARTCHAR 1
ENCODING 49
SWIDTH 533 0
DWIDTH 10 0
BBX 6 13 1 0
BITMAP
1c
3c
fc
fc
1c
1c
1c
1c
1c
1c
1c
1c
1c
ENDCHAR
STARTCHAR 2
ENCODING 50
SWIDTH 533 0
DWIDTH 10 0
BBX 9 13 0 0
BITMAP
3e00
7f00
e380
e380
0380
0700
1f00
3e00
7800
7000
e000
ff80
ff80
ENDCHAR
STARTCHAR 3
ENCODING 51
SWIDTH 533 0
DWIDTH 10 0
BBX 9 13 0 0
BITMAP
3e00
7f00
e700
e300
0700
1e00
1f00
0780
0380
e380
e780
7f00
3e00
ENDCHAR
STARTCHAR 4
ENCODING 52
SWIDTH 533 0
DWIDTH 10 0
BBX 9 13 0 0
BITMAP
0700
0f00
1f00
3f00
3700
7700
6700
e700
ff80
ff80
0700
0700
0700
ENDCHAR
STARTCHAR 5
ENCODING 53
SWIDTH 533 0
DWIDTH 10 0
BBX 9 13 0 0
BITMAP
ff00
ff00
e000
e000
fe00
ff00
e780
0380
0380
e380
e780
ff00
7e00
ENDCHAR
STARTCHAR 6
ENCODING 54
SWIDTH 533 0
DWIDTH 10 0
BBX 9 13 0 0
BITMAP
3e00
7f00
7300
e000
e000
ee00
ff00
f380
e380
e380
f380
7f00
3e00
ENDCHAR
STARTCHAR 7
ENCODING 55
SWIDTH 533 0
DWIDTH 10 0
BBX 9 13 0 0
BITMAP
ff80
ff80
0380
0700
0e00
0e00
1c00
1c00
3800
3800
7000
7000
7000
ENDCHAR
STARTCHAR 8
ENCODING 56
SWIDTH 533 0
DWIDTH 10 0
BBX 9 13 0 0
BITMAP
3e00
7f00
e380
e380
e380
7f00
3e00
7700
e380
e380
e380
7f00
3e00
ENDCHAR
STARTCHAR 9
ENCODING 57
SWIDTH 533 0
DWIDTH 10 0
BBX 9 13 0 0
BITMAP
3e00
7f00
e700
e380
c380
c380
e780
7f80
3d80
0380
e700
ff00
7c00
ENDCHAR
STARTCHAR colon
ENCODING 58
SWIDTH 320 0
DWIDTH 6 0
BBX 3 10 2 0
BITMAP
e0
e0
e0
00
00
00
00
e0
e0
e0
ENDCHAR
STARTCHAR semicolon
ENCODING 59
SWIDTH 320 0
DWIDTH 6 0
BBX 3 12 2 -2
BITMAP
e0
e0
e0
00
00
00
00
e0
e0
e0
40
80
ENDCHAR
STARTCHAR less
ENCODING 60
SWIDTH 586 0
DWIDTH 11 0
BBX 9 9 1 0
BITMAP
0380
0f80
3e00
7800
e000
7800
3e00
0f80
0380
ENDCHAR
STARTCHAR equal
ENCODING 61
SWIDTH 533 0
DWIDTH 10 0
BBX 8 6 1 2
BITMAP
ff
ff
00
00
ff
ff
ENDCHAR
STARTCHAR greater
ENCODING 62
SWIDTH 586 0
DWIDTH 11 0
BBX 9 9 1 0
BITMAP
e000
f800
3e00
0f00
0380
0f00
3e00
f800
e000
ENDCHAR
STARTCHAR question
ENCODING 63
SWIDTH 533 0
DWIDTH 10 0
BBX 8 14 1 0
BITMAP
7e
ff
e7
e7
0e
1e
1c
38
38
38
00
38
38
38
ENDCHAR
STARTCHAR at
ENCODING 64
SWIDTH 960 0
DWIDTH 18 0
BBX 16 17 1 -3
BITMAP
07f0
1ffc
3c1e
7006
63b7
e7f3
c663
cc63
ccc3
ccc6
ccc6
effc
e7b8
7000
3c00
1ff0
07f0
ENDCHAR
STARTCHAR A
ENCODING 65
SWIDTH 693 0
DWIDTH 13 0
BBX 11 14 1 0
BITMAP
0e00
0e00
1f00
1f00
1b00
3b80
3180
3180
71c0
7fc0
7fc0
e0e0
e0e0
e0e0
ENDCHAR
STARTCHAR B
ENCODING 66
SWIDTH 693 0
DWIDTH 13 0
BBX 11 14 1 0
BITMAP
fe00
ff80
e3c0
e1c0
e1c0
e380
ff80
ffc0
e1e0
e0e0
e0e0
e1e0
ffc0
ff00
ENDCHAR
STARTCHAR C
ENCODING 67
SWIDTH 746 0
DWIDTH 14 0
BBX 12 14 1 0
BITMAP
0f80
3fe0
78e0
7070
f070
e000
e000
e000
e000
f070
7070
78e0
3fe0
0f80
ENDCHAR
STARTCHAR D
ENCODING 68
SWIDTH 746 0
DWIDTH 14 0
BBX 12 14 1 0
BITMAP
ff00
ffc0
e1e0
e0e0
e070
e070
e070
e070
e070
e070
e0e0
e1e0
ffc0
ff00
ENDCHAR
STARTCHAR E
ENCODING 69
SWIDTH 640 0
DWIDTH 12 0
BBX 10 14 1 0
BITMAP
ffc0
ffc0
e000
e000
e000
e000
ff80
ff80
e000
e000
e000
e000
ffc0
ffc0
ENDCHAR
STARTCHAR F
ENCODING 70
SWIDTH 640 0
DWIDTH 12 0
BBX 10 14 1 0
BITMAP
ffc0
ffc0
e000
e000
e000
e000
ff80
ff80
e000
e000
e000
e000
e000
e000
ENDCHAR
STARTCHAR G
ENCODING 71
SWIDTH 746 0
DWIDTH 14 0
BBX 12 14 1 0
BITMAP
0f80
3fe0
78e0
7070
e070
e000
e000
e3f0
e3f0
e070
7070
78f0
3ff0
1fb0
ENDCHAR
STARTCHAR H
ENCODING 72
SWIDTH 693 0
DWIDTH 13 0
BBX 11 14 1 0
BITMAP
e0e0
e0e0
e0e0
e0e0
e0e0
e0e0
ffe0
ffe0
e0e0
e0e0
e0e0
e0e0
e0e0
e0e0
ENDCHAR
STARTCHAR I
ENCODING 73
SWIDTH 266 0
DWIDTH 5 0
BBX 3 14 1 0
BITMAP
e0
e0
e0
e0
e0
e0
e0
e0
e0
e0
e0
e0
e0
e0
ENDCHAR
STARTCHAR J
ENCODING 74
SWIDTH 533 0
DWIDTH 10 0
BBX 9 14 0 0
BITMAP
0380
0380
0380
0380
0380
0380
0380
0380
0380
e380
e380
f780
7f00
3e00
ENDCHAR
STARTCHAR K
ENCODING 75
SWIDTH 746 0
DWIDTH 14 0
BBX 13 14 1 0
BITMAP
e0f0
e1e0
e3c0
e780
ef00
fe00
fc00
fe00
ef00
e780
e3c0
e1e0
e0f0
e078
ENDCHAR
STARTCHAR L
ENCODING 76
SWIDTH 586 0
DWIDTH 11 0
BBX 9 14 1 0
BITMAP
e000
e000
e000
e000
e000
e000
e000
e000
e000
e000
e000
e000
ff80
ff80
ENDCHAR
STARTCHAR M
ENCODING 77
SWIDTH 853 0
DWIDTH 16 0
BBX 14 14 1 0
BITMAP
e01c
e01c
f03c
f03c
f87c
f87c
f87c
ecdc
ecdc
ecdc
e79c
e79c
e31c
e31c
ENDCHAR
STARTCHAR N
ENCODING 78
SWIDTH 746 0
DWIDTH 14 0
BBX 12 14 1 0
BITMAP
e070
f070
f070
f870
fc70
ec70
ee70
e670
e770
e370
e1f0
e1f0
e0f0
e070
ENDCHAR
STARTCHAR O
ENCODING 79
SWIDTH 853 0
DWIDTH 16 0
BBX 14 14 1 0
BITMAP
0fc0
3ff0
7878
7038
f03c
e01c
e01c
e01c
e01c
f03c
7038
7878
3ff0
0fc0
ENDCHAR
STARTCHAR P
ENCODING 80
SWIDTH 640 0
DWIDTH 12 0
BBX 10 14 1 0
BITMAP
fe00
ff80
e3c0
e1c0
e1c0
e3c0
ff80
fe00
e000
e000
e000
e000
e000
e000
ENDCHAR
STARTCHAR Q
ENCODING 81
SWIDTH 853 0
DWIDTH 16 0
BBX 14 15 1 -1
BITMAP
0fc0
3ff0
7878
7038
f03c
e01c
e01c
e01c
e01c
f19c
71d8
78f8
3ff0
0ff8
0018
ENDCHAR
STARTCHAR R
ENCODING 82
SWIDTH 693 0
DWIDTH 13 0
BBX 11 14 1 0
BITMAP
ff00
ffc0
e1e0
e0e0
e0e0
e1e0
ffc0
ff80
e1c0
e0e0
e0e0
e0e0
e0e0
e0e0
ENDCHAR
STARTCHAR S
ENCODING 83
SWIDTH 640 0
DWIDTH 12 0
BBX 10 14 1 0
BITMAP
3f00
7f80
e3c0
e1c0
f000
7c00
3f00
0f80
03c0
e1c0
e1c0
f3c0
7f80
3f00
ENDCHAR
STARTCHAR T
ENCODING 84
SWIDTH 586 0
DWIDTH 11 0
BBX 11 14 0 0
BITMAP
ffe0
ffe0
0e00
0e00
0e00
0e00
0e00
0e00
0e00
0e00
0e00
0e00
0e00
0e00
ENDCHAR
STARTCHAR U
ENCODING 85
SWIDTH 693 0
DWIDTH 13 0
BBX 11 14 1 0
BITMAP
e0e0
e0e0
e0e0
e0e0
e0e0
e0e0
e0e0
e0e0
e0e0
e0e0
e0e0
71c0
7fc0
1f00
ENDCHAR
STARTCHAR V
ENCODING 86
SWIDTH 693 0
DWIDTH 13 0
BBX 11 14 1 0
BITMAP
e0e0
e0e0
e0e0
71c0
71c0
71c0
3180
3b80
3b80
1b00
1f00
1f00
0e00
0e00
ENDCHAR
STARTCHAR W
ENCODING 87
SWIDTH 906 0
DWIDTH 17 0
BBX 15 14 1 0
BITMAP
e38e
e38e
e38e
e38e
739c
739c
739c
76dc
36d8
36d8
3ef8
1c70
1c70
1c70
ENDCHAR
STARTCHAR X
ENCODING 88
SWIDTH 640 0
DWIDTH 12 0
BBX 12 14 0 0
BITMAP
e070
e070
70e0
79e0
1980
1f80
0f00
1f80
1980
39c0
70e0
70e0
e070
e070
ENDCHAR
STARTCHAR Y
ENCODING 89
SWIDTH 693 0
DWIDTH 13 0
BBX 11 14 1 0
BITMAP
e0e0
e0e0
e0e0
71c0
71c0
3b80
3b80
1f00
0e00
0e00
0e00
0e00
0e00
0e00
ENDCHAR
STARTCHAR Z
ENCODING 90
SWIDTH 586 0
DWIDTH 11 0
BBX 10 14 1 0
BITMAP
ffc0
ffc0
01c0
0380
0700
0700
0e00
1c00
3800
3800
7000
e000
ffc0
ffc0
ENDCHAR
STARTCHAR bracketleft
ENCODING 91
SWIDTH 320 0
DWIDTH 6 0
BBX 5 18 1 -4
BITMAP
f8
f8
e0
e0
e0
e0
e0
e0
e0
e0
e0
e0
e0
e0
e0
e0
f8
f8
ENDCHAR
STARTCHAR backslash
ENCODING 92
SWIDTH 266 0
DWIDTH 5 0
BBX 5 14 0 0
BITMAP
c0
c0
c0
40
60
60
60
20
30
30
10
18
18
18
ENDCHAR
STARTCHAR bracketright
ENCODING 93
SWIDTH 320 0
DWIDTH 6 0
BBX 5 18 0 -4
BITMAP
f8
f8
38
38
38
38
38
38
38
38
38
38
38
38
38
38
f8
f8
ENDCHAR
STARTCHAR asciicircum
ENCODING 94
SWIDTH 533 0
DWIDTH 10 0
BBX 10 6 0 7
BITMAP
0c00
1e00
3f00
7380
e1c0
c0c0
ENDCHAR
STARTCHAR underscore
ENCODING 95
SWIDTH 533 0
DWIDTH 10 0
BBX 10 2 0 -4
BITMAP
ffc0
ffc0
ENDCHAR
STARTCHAR grave
ENCODING 96
SWIDTH 266 0
DWIDTH 5 0
BBX 3 5 1 9
BITMAP
60
c0
c0
e0
e0
ENDCHAR
STARTCHAR a
ENCODING 97
SWIDTH 533 0
DWIDTH 10 0
BBX 8 10 1 0
BITMAP
7c
fe
e7
0f
3f
77
e7
e7
ff
77
ENDCHAR
STARTCHAR b
ENCODING 98
SWIDTH 640 0
DWIDTH 12 0
BBX 10 14 1 0
BITMAP
e000
e000
e000
e000
ef00
ff80
f380
e1c0
e1c0
e1c0
e1c0
f380
ff80
ef00
ENDCHAR
STARTCHAR c
ENCODING 99
SWIDTH 533 0
DWIDTH 10 0
BBX 9 10 1 0
BITMAP
1e00
7f80
7380
e000
e000
e000
e000
7380
7f80
1e00
ENDCHAR
STARTCHAR d
ENCODING 100
SWIDTH 640 0
DWIDTH 12 0
BBX 10 14 1 0
BITMAP
01c0
01c0
01c0
01c0
3dc0
7fc0
73c0
e1c0
e1c0
e1c0
e1c0
73c0
7fc0
3dc0
ENDCHAR
STARTCHAR e
ENCODING 101
SWIDTH 586 0
DWIDTH 11 0
BBX 9 10 1 0
BITMAP
1e00
7f00
7380
e180
ff80
ff80
e000
7380
7f80
1e00
ENDCHAR
STARTCHAR f
ENCODING 102
SWIDTH 373 0
DWIDTH 7 0
BBX 7 14 0 0
BITMAP
1e
3e
38
38
fe
fe
38
38
38
38
38
38
38
38
ENDCHAR
STARTCHAR g
ENCODING 103
SWIDTH 640 0
DWIDTH 12 0
BBX 10 14 1 -4
BITMAP
3dc0
7fc0
73c0
e1c0
e1c0
e1c0
e1c0
73c0
7fc0
3dc0
01c0
7380
7f80
1e00
ENDCHAR
STARTCHAR h
ENCODING 104
SWIDTH 586 0
DWIDTH 11 0
BBX 9 14 1 0
BITMAP
e000
e000
e000
e000
ef00
ff80
f380
e380
e380
e380
e380
e380
e380
e380
ENDCHAR
STARTCHAR i
ENCODING 105
SWIDTH 266 0
DWIDTH 5 0
BBX 3 14 1 0
BITMAP
e0
e0
00
00
e0
e0
e0
e0
e0
e0
e0
e0
e0
e0
ENDCHAR
STARTCHAR j
ENCODING 106
SWIDTH 266 0
DWIDTH 5 0
BBX 5 18 -1 -4
BITMAP
38
38
00
00
38
38
38
38
38
38
38
38
38
38
38
38
f8
f0
ENDCHAR
STARTCHAR k
ENCODING 107
SWIDTH 533 0
DWIDTH 10 0
BBX 9 14 1 0
BITMAP
e000
e000
e000
e000
e700
ee00
fc00
f800
f800
fc00
ee00
e700
e780
e380
ENDCHAR
STARTCHAR l
ENCODING 108
SWIDTH 266 0
DWIDTH 5 0
BBX 3 14 1 0
BITMAP
e0
e0
e0
e0
e0
e0
e0
e0
e0
e0
e0
e0
e0
e0
ENDCHAR
STARTCHAR m
ENCODING 109
SWIDTH 800 0
DWIDTH 15 0
BBX 13 10 1 0
BITMAP
ee70
fff8
f7b8
e738
e738
e738
e738
e738
e738
e738
ENDCHAR
STARTCHAR n
ENCODING 110
SWIDTH 586 0
DWIDTH 11 0
BBX 9 10 1 0
BITMAP
ef00
ff80
f380
e380
e380
e380
e380
e380
e380
e380
ENDCHAR
STARTCHAR o
ENCODING 111
SWIDTH 640 0
DWIDTH 12 0
BBX 10 10 1 0
BITMAP
1e00
7f80
7380
e1c0
e1c0
e1c0
e1c0
7380
7f80
1e00
ENDCHAR
STARTCHAR p
ENCODING 112
SWIDTH 640 0
DWIDTH 12 0
BBX 10 14 1 -4
BITMAP
ef00
ff80
f380
e1c0
e1c0
e1c0
e1c0
f380
ff80
ef00
e000
e000
e000
e000
ENDCHAR
STARTCHAR q
ENCODING 113
SWIDTH 640 0
DWIDTH 12 0
BBX 10 14 1 -4
BITMAP
3dc0
7fc0
73c0
e1c0
e1c0
e1c0
e1c0
73c0
7fc0
3dc0
01c0
01c0
01c0
01c0
ENDCHAR
STARTCHAR r
ENCODING 114
SWIDTH 373 0
DWIDTH 7 0
BBX 6 10 1 0
BITMAP
ec
fc
fc
e0
e0
e0
e0
e0
e0
e0
ENDCHAR
STARTCHAR s
ENCODING 115
SWIDTH 533 0
DWIDTH 10 0
BBX 8 10 1 0
BITMAP
1e
7f
e7
e0
fe
3f
07
e7
fe
78
ENDCHAR
STARTCHAR t
ENCODING 116
SWIDTH 320 0
DWIDTH 6 0
BBX 6 13 0 0
BITMAP
70
70
70
fc
fc
70
70
70
70
70
70
7c
3c
ENDCHAR
STARTCHAR u
ENCODING 117
SWIDTH 586 0
DWIDTH 11 0
BBX 9 10 1 0
BITMAP
e380
e380
e380
e380
e380
e380
e380
e780
ff80
7b80
ENDCHAR
STARTCHAR v
ENCODING 118
SWIDTH 480 0
DWIDTH 9 0
BBX 9 10 0 0
BITMAP
e380
e380
e380
7700
7700
7700
3e00
3e00
1c00
1c00
ENDCHAR
STARTCHAR w
ENCODING 119
SWIDTH 693 0
DWIDTH 13 0
BBX 13 10 0 0
BITMAP
e738
e738
e738
6730
7770
7570
3de0
3de0
18c0
18c0
ENDCHAR
STARTCHAR x
ENCODING 120
SWIDTH 480 0
DWIDTH 9 0
BBX 9 10 0 0
BITMAP
e380
e380
7700
3e00
1c00
3e00
7700
7700
e380
e380
ENDCHAR
STARTCHAR y
ENCODING 121
SWIDTH 480 0
DWIDTH 9 0
BBX 9 14 0 -4
BITMAP
e380
e380
e380
7700
7700
7700
3e00
3e00
1c00
1c00
1c00
1800
7800
7000
ENDCHAR
STARTCHAR z
ENCODING 122
SWIDTH 533 0
DWIDTH 10 0
BBX 8 10 1 0
BITMAP
ff
ff
07
0e
1c
38
70
e0
ff
ff
ENDCHAR
STARTCHAR braceleft
ENCODING 123
SWIDTH 426 0
DWIDTH 8 0
BBX 7 18 1 -4
BITMAP
0e
1c
38
38
38
38
38
70
e0
70
38
38
38
38
38
38
1c
0e
ENDCHAR
STARTCHAR bar
ENCODING 124
SWIDTH 266 0
DWIDTH 5 0
BBX 2 18 1 -4
BITMAP
c0
c0
c0
c0
c0
c0
c0
c0
c0
c0
c0
c0
c0
c0
c0
c0
c0
c0
ENDCHAR
STARTCHAR braceright
ENCODING 125
SWIDTH 426 0
DWIDTH 8 0
BBX 7 18 0 -4
BITMAP
e0
70
38
38
38
38
38
1c
0e
1c
38
38
38
38
38
38
70
e0
ENDCHAR
STARTCHAR asciitilde
ENCODING 126
SWIDTH 586 0
DWIDTH 11 0
BBX 9 3 1 4
BITMAP
7980
ff80
cf00
ENDCHAR
STARTCHAR nobreakspace
ENCODING 160
SWIDTH 266 0
DWIDTH 5 0
BBX 1 1 0 0
BITMAP
00
ENDCHAR
STARTCHAR exclamdown
ENCODING 161
SWIDTH 320 0
DWIDTH 6 0
BBX 3 14 2 -4
BITMAP
00
00
00
00
00
00
00
00
00
00
00
00
00
00
ENDCHAR
STARTCHAR cent
ENCODING 162
SWIDTH 533 0
DWIDTH 10 0
BBX 8 14 1 -2
BITMAP
00
00
00
00
00
00
00
00
00
00
00
00
00
00
ENDCHAR
STARTCHAR sterling
ENCODING 163
SWIDTH 586 0
DWIDTH 11 0
BBX 10 13 0 0
BITMAP
0000
0000
00c0
e000
0040
60c0
e0c0
e0c0
e0c0
e000
0200
7fc0
c8c0
ENDCHAR
STARTCHAR currency
ENCODING 164
SWIDTH 586 0
DWIDTH 11 0
BBX 9 8 1 2
BITMAP
d080
e300
7e00
4000
0000
c000
c000
0000
ENDCHAR
STARTCHAR yen
ENCODING 165
SWIDTH 533 0
DWIDTH 10 0
BBX 9 13 0 0
BITMAP
0000
0000
0000
0000
0000
0000
c080
c080
8080
8080
8000
0000
0000
ENDCHAR
STARTCHAR brokenbar
ENCODING 166
SWIDTH 266 0
DWIDTH 5 0
BBX 2 17 1 -3
BITMAP
00
40
00
c0
80
c0
80
c0
80
c0
80
c0
80
40
00
40
00
ENDCHAR
STARTCHAR section
ENCODING 167
SWIDTH 533 0
DWIDTH 10 0
BBX 8 18 1 -4
BITMAP
3e
00
ff
80
1c
00
ff
80
1c
00
1c
00
1c
00
1c
00
c0
c0
ENDCHAR
STARTCHAR diaeresis
ENCODING 168
SWIDTH 373 0
DWIDTH 7 0
BBX 5 2 1 11
BITMAP
c0
c0
ENDCHAR
STARTCHAR copyright
ENCODING 169
SWIDTH 800 0
DWIDTH 15 0
BBX 13 13 1 0
BITMAP
c0c0
c000
0000
c0c0
c0c0
c0c0
c038
7ec0
c7e0
78f8
c6c0
e370
3f08
ENDCHAR
STARTCHAR ordfeminine
ENCODING 170
SWIDTH 426 0
DWIDTH 8 0
BBX 6 9 1 5
BITMAP
04
e0
e0
7c
3c
d8
d8
0c
80
ENDCHAR
STARTCHAR guillemotleft
ENCODING 171
SWIDTH 586 0
DWIDTH 11 0
BBX 10 8 0 1
BITMAP
38c0
6000
6700
cd80
d800
9800
d800
cd80
ENDCHAR
STARTCHAR notsign
ENCODING 172
SWIDTH 586 0
DWIDTH 11 0
BBX 9 5 1 2
BITMAP
6700
6000
3880
0f80
7880
ENDCHAR
STARTCHAR hyphen
ENCODING 173
SWIDTH 373 0
DWIDTH 7 0
BBX 5 3 1 4
BITMAP
78
c8
c8
ENDCHAR
STARTCHAR registered
ENCODING 174
SWIDTH 800 0
DWIDTH 15 0
BBX 13 13 1 0
BITMAP
7400
fcf8
1dc0
3b80
7700
ee00
ee00
7700
3b80
1dc0
ff80
ff80
0180
ENDCHAR
STARTCHAR macron
ENCODING 175
SWIDTH 373 0
DWIDTH 7 0
BBX 5 2 1 12
BITMAP
00
80
ENDCHAR
STARTCHAR degree
ENCODING 176
SWIDTH 373 0
DWIDTH 7 0
BBX 6 6 0 7
BITMAP
00
80
f8
f8
f8
0c
ENDCHAR
STARTCHAR plusminus
ENCODING 177
SWIDTH 586 0
DWIDTH 11 0
BBX 9 9 1 0
BITMAP
8000
e000
3000
9080
d880
d880
0880
9880
9800
ENDCHAR
STARTCHAR twosuperior
ENCODING 178
SWIDTH 320 0
DWIDTH 6 0
BBX 6 8 0 5
BITMAP
f0
60
30
38
e0
0c
80
f8
ENDCHAR
STARTCHAR threesuperior
ENCODING 179
SWIDTH 320 0
DWIDTH 6 0
BBX 6 8 0 5
BITMAP
f8
78
fc
cc
cc
fc
78
1c
ENDCHAR
STARTCHAR acute
ENCODING 180
SWIDTH 266 0
DWIDTH 5 0
BBX 5 3 0 11
BITMAP
00
18
00
ENDCHAR
STARTCHAR mu
ENCODING 181
SWIDTH 586 0
DWIDTH 11 0
BBX 9 14 1 -4
BITMAP
ff80
ff80
1c00
1c00
0000
ff80
ff80
7880
cc00
7880
fc80
7880
cc00
3c80
ENDCHAR
STARTCHAR paragraph
ENCODING 182
SWIDTH 533 0
DWIDTH 10 0
BBX 9 18 0 -4
BITMAP
fc00
3800
e080
8080
8080
8080
8080
8080
8080
8080
8080
8080
8080
0080
0080
0080
0000
8000
ENDCHAR
STARTCHAR periodcentered
ENCODING 183
SWIDTH 213 0
DWIDTH 4 0
BBX 2 2 1 4
BITMAP
00
c0
ENDCHAR
STARTCHAR cedilla
ENCODING 184
SWIDTH 373 0
DWIDTH 7 0
BBX 5 5 1 -5
BITMAP
00
f8
00
f8
00
ENDCHAR
STARTCHAR onesuperior
ENCODING 185
SWIDTH 320 0
DWIDTH 6 0
BBX 4 8 0 5
BITMAP
f0
00
f0
00
70
00
30
00
ENDCHAR
STARTCHAR masculine
ENCODING 186
SWIDTH 426 0
DWIDTH 8 0
BBX 6 9 1 5
BITMAP
18
00
18
00
18
00
18
00
18
ENDCHAR
STARTCHAR guillemotright
ENCODING 187
SWIDTH 586 0
DWIDTH 11 0
BBX 10 8 0 1
BITMAP
0000
0000
0000
0000
00c0
c040
7000
f8c0
ENDCHAR
STARTCHAR onequarter
ENCODING 188
SWIDTH 800 0
DWIDTH 15 0
BBX 14 13 0 0
BITMAP
30f0
f030
3030
3030
78cc
cccc
cc78
00fc
fcec
0074
0038
801c
c01c
ENDCHAR
STARTCHAR onehalf
ENCODING 189
SWIDTH 800 0
DWIDTH 15 0
BBX 15 13 0 0
BITMAP
c03a
8076
00ee
0030
60f0
60f0
c030
c030
8030
9832
3836
3806
780c
ENDCHAR
STARTCHAR threequarters
ENCODING 190
SWIDTH 800 0
DWIDTH 15 0
BBX 14 13 0 0
BITMAP
d80c
fc18
1818
1830
60f0
60f0
c030
c030
8030
bc30
7e34
6604
0e0c
ENDCHAR
STARTCHAR questiondown
ENCODING 191
SWIDTH 533 0
DWIDTH 10 0
BBX 8 14 1 -4
BITMAP
3c
0c
70
18
7e
18
7e
78
30
fc
30
cc
60
38
ENDCHAR
STARTCHAR Agrave
ENCODING 192
SWIDTH 693 0
DWIDTH 13 0
BBX 11 18 1 0
BITMAP
6020
c0c0
d8e0
b860
3800
7800
d800
fc00
1800
1800
1c00
0000
1c00
3860
70e0
e7e0
7e20
0000
ENDCHAR
STARTCHAR Aacute
ENCODING 193
SWIDTH 693 0
DWIDTH 13 0
BBX 11 18 1 0
BITMAP
0000
0000
0000
0000
0000
0000
0000
0020
8020
8020
8060
c060
c060
c0e0
e0e0
e0e0
e000
8000
ENDCHAR
STARTCHAR Acircumflex
ENCODING 194
SWIDTH 693 0
DWIDTH 13 0
BBX 11 18 1 0
BITMAP
0000
0000
0000
0000
0000
0000
0000
0020
8020
8020
8060
c060
c060
c0e0
e0e0
e0e0
e000
0000
ENDCHAR
STARTCHAR Atilde
ENCODING 195
SWIDTH 693 0
DWIDTH 13 0
BBX 11 18 1 0
BITMAP
0020
8000
0000
0000
0000
0000
0000
0020
8020
8020
8060
c060
c060
c0e0
e0e0
e0e0
e000
8020
ENDCHAR
STARTCHAR Adiaeresis
ENCODING 196
SWIDTH 693 0
DWIDTH 13 0
BBX 11 17 1 0
BITMAP
8020
0000
0000
0000
0000
0000
0000
0020
8020
8020
8060
c060
c060
c0e0
e0e0
e0e0
e000
ENDCHAR
STARTCHAR Aring
ENCODING 197
SWIDTH 693 0
DWIDTH 13 0
BBX 11 17 1 0
BITMAP
8000
8000
0000
0000
0000
0000
0000
0020
8020
8020
8060
c060
c060
c0e0
e0e0
e0e0
e000
ENDCHAR
STARTCHAR AE
ENCODING 198
SWIDTH 960 0
DWIDTH 18 0
BBX 16 14 1 0
BITMAP
001b
001b
000e
000e
001f
001f
001b
003b
8031
8031
8071
c07f
c07f
c0e0
ENDCHAR
STARTCHAR Ccedilla
ENCODING 199
SWIDTH 746 0
DWIDTH 14 0
BBX 12 19 1 -5
BITMAP
e0e0
e0e0
e000
ff00
ff10
8010
8030
8030
8030
fe70
fe70
8070
80f0
80e0
80e0
ffe0
ff00
8030
e070
ENDCHAR
STARTCHAR Egrave
ENCODING 200
SWIDTH 640 0
DWIDTH 12 0
BBX 10 18 1 0
BITMAP
e040
70c0
70c0
00c0
00c0
00c0
00c0
7040
7040
e000
e000
8000
0000
0000
0000
0000
0000
0000
ENDCHAR
STARTCHAR Eacute
ENCODING 201
SWIDTH 640 0
DWIDTH 12 0
BBX 10 18 1 0
BITMAP
0000
0000
00c0
c0c0
c0c0
00c0
00c0
00c0
00c0
80c0
80c0
00c0
00c0
00c0
00c0
c0c0
c000
8000
ENDCHAR
STARTCHAR Ecircumflex
ENCODING 202
SWIDTH 640 0
DWIDTH 12 0
BBX 10 18 1 0
BITMAP
0000
0000
00c0
c0c0
c0c0
00c0
00c0
00c0
00c0
80c0
80c0
00c0
00c0
00c0
00c0
c0c0
c000
0000
ENDCHAR
STARTCHAR Ediaeresis
ENCODING 203
SWIDTH 640 0
DWIDTH 12 0
BBX 10 17 1 0
BITMAP
0000
8000
00c0
c0c0
c0c0
00c0
00c0
00c0
00c0
80c0
80c0
00c0
00c0
00c0
00c0
c0c0
c000
ENDCHAR
STARTCHAR Igrave
ENCODING 204
SWIDTH 266 0
DWIDTH 5 0
BBX 5 18 -1 0
BITMAP
00
30
00
00
00
f8
c0
f8
c0
e0
00
e0
00
e0
00
e0
00
f8
ENDCHAR
STARTCHAR Iacute
ENCODING 205
SWIDTH 266 0
DWIDTH 5 0
BBX 5 18 1 0
BITMAP
80
f8
80
e0
00
e0
00
e0
00
e0
00
f8
c0
f8
c0
e0
70
38
ENDCHAR
STARTCHAR Icircumflex
ENCODING 206
SWIDTH 266 0
DWIDTH 5 0
BBX 5 18 0 0
BITMAP
00
38
38
38
38
38
38
38
38
38
38
38
38
38
38
38
70
e0
ENDCHAR
STARTCHAR Idiaeresis
ENCODING 207
SWIDTH 266 0
DWIDTH 5 0
BBX 5 17 0 0
BITMAP
00
e0
e0
e0
e0
e0
e0
e0
e0
e0
e0
e0
e0
e0
e0
20
70
ENDCHAR
STARTCHAR ETH
ENCODING 208
SWIDTH 746 0
DWIDTH 14 0
BBX 13 14 0 0
BITMAP
d800
7070
7070
7070
7070
7070
7070
7070
d8d8
0070
7070
7070
7070
7070
ENDCHAR
STARTCHAR Ntilde
ENCODING 209
SWIDTH 746 0
DWIDTH 14 0
BBX 12 18 1 0
BITMAP
7070
7070
7070
8070
e070
f070
7070
3870
38f0
38f0
3870
3870
3870
7070
f070
e070
8000
c010
ENDCHAR
STARTCHAR Ograve
ENCODING 210
SWIDTH 853 0
DWIDTH 16 0
BBX 14 18 1 0
BITMAP
c018
8000
00e0
70f0
70f0
70f8
70fc
70ec
70ec
70e4
70e4
70e0
70e0
f0e0
f0e0
f0e0
700c
0004
ENDCHAR
STARTCHAR Oacute
ENCODING 211
SWIDTH 853 0
DWIDTH 16 0
BBX 14 18 1 0
BITMAP
0000
8000
000c
c03c
f078
7870
38f0
3ce0
1ce0
1ce0
1ce0
1cf0
3c70
3878
783c
f00c
c000
e000
ENDCHAR
STARTCHAR Ocircumflex
ENCODING 212
SWIDTH 853 0
DWIDTH 16 0
BBX 14 18 1 0
BITMAP
c000
8000
000c
c03c
f078
7870
38f0
3ce0
1ce0
1ce0
1ce0
1cf0
3c70
3878
783c
f00c
c000
8004
ENDCHAR
STARTCHAR Otilde
ENCODING 213
SWIDTH 853 0
DWIDTH 16 0
BBX 14 18 1 0
BITMAP
c00c
e000
000c
c03c
f078
7870
38f0
3ce0
1ce0
1ce0
1ce0
1cf0
3c70
3878
783c
f00c
c004
600c
ENDCHAR
STARTCHAR Odiaeresis
ENCODING 214
SWIDTH 853 0
DWIDTH 16 0
BBX 14 17 1 0
BITMAP
e00c
c000
000c
c03c
f078
7870
38f0
3ce0
1ce0
1ce0
1ce0
1cf0
3c70
3878
783c
f00c
c00c
ENDCHAR
STARTCHAR multiply
ENCODING 215
SWIDTH 586 0
DWIDTH 11 0
BBX 10 8 0 1
BITMAP
c000
c000
0000
c000
f040
7840
38c0
3cc0
ENDCHAR
STARTCHAR Ooblique
ENCODING 216
SWIDTH 853 0
DWIDTH 16 0
BBX 15 14 0 0
BITMAP
1ce0
1ce0
1ce0
1cf0
3c70
3878
783e
f00e
c0e0
c072
803e
001e
001e
003e
ENDCHAR
STARTCHAR Ugrave
ENCODING 217
SWIDTH 693 0
DWIDTH 13 0
BBX 11 18 1 0
BITMAP
0060
80e0
c000
ee00
fc20
3820
7c60
ee60
ce60
8e60
0e60
0e60
1e20
1c60
3ce0
f8c0
e020
0000
ENDCHAR
STARTCHAR Uacute
ENCODING 218
SWIDTH 693 0
DWIDTH 13 0
BBX 11 18 1 0
BITMAP
0000
0000
00e0
e0e0
e0e0
e0e0
e0e0
e0e0
e0e0
e0e0
e0e0
e0e0
e0e0
e060
c060
c000
0000
8000
ENDCHAR
STARTCHAR Ucircumflex
ENCODING 219
SWIDTH 693 0
DWIDTH 13 0
BBX 11 18 1 0
BITMAP
0000
0000
00e0
e0e0
e0e0
e0e0
e0e0
e0e0
e0e0
e0e0
e0e0
e0e0
e0e0
e060
c060
c000
0000
0000
ENDCHAR
STARTCHAR Udiaeresis
ENCODING 220
SWIDTH 693 0
DWIDTH 13 0
BBX 11 17 1 0
BITMAP
0020
8000
00e0
e0e0
e0e0
e0e0
e0e0
e0e0
e0e0
e0e0
e0e0
e0e0
e0e0
e060
c060
c000
0000
ENDCHAR
STARTCHAR Yacute
ENCODING 221
SWIDTH 693 0
DWIDTH 13 0
BBX 11 18 1 0
BITMAP
8000
8000
00e0
e0e0
e0e0
e0e0
e0e0
e0e0
e0e0
e0e0
e0e0
e0e0
e0e0
e060
c060
c000
0000
8000
ENDCHAR
STARTCHAR THORN
ENCODING 222
SWIDTH 640 0
DWIDTH 12 0
BBX 10 14 1 0
BITMAP
0000
0000
00c0
e0c0
e0c0
e040
c040
c000
8000
8000
0000
0000
0000
0000
ENDCHAR
STARTCHAR ssharp
ENCODING 223
SWIDTH 533 0
DWIDTH 10 0
BBX 8 14 1 0
BITMAP
00
0e
00
0e
00
e0
00
e0
00
e0
00
fe
00
ff
ENDCHAR
STARTCHAR agrave
ENCODING 224
SWIDTH 533 0
DWIDTH 10 0
BBX 8 14 1 0
BITMAP
80
e3
c0
e1
c0
e1
c0
e3
c0
ff
80
fe
00
e0
ENDCHAR
STARTCHAR aacute
ENCODING 225
SWIDTH 533 0
DWIDTH 10 0
BBX 8 14 1 0
BITMAP
00
e0
00
e0
00
3c
7e
e7
e7
e7
e7
ee
ee
e7
ENDCHAR
STARTCHAR acircumflex
ENCODING 226
SWIDTH 533 0
DWIDTH 10 0
BBX 8 14 1 0
BITMAP
e7
e7
e7
ef
ee
70
38
1c
00
7c
fe
e7
0f
3f
ENDCHAR
STARTCHAR atilde
ENCODING 227
SWIDTH 533 0
DWIDTH 10 0
BBX 8 14 1 0
BITMAP
77
e7
e7
ff
77
0e
1c
38
00
7c
fe
e7
0f
3f
ENDCHAR
STARTCHAR adiaeresis
ENCODING 228
SWIDTH 533 0
DWIDTH 10 0
BBX 8 13 1 0
BITMAP
77
e7
e7
ff
77
1c
3e
77
00
7c
fe
e7
0f
ENDCHAR
STARTCHAR aring
ENCODING 229
SWIDTH 533 0
DWIDTH 10 0
BBX 8 14 1 0
BITMAP
3f
77
e7
e7
ff
77
3b
7f
6e
00
7c
fe
e7
0f
ENDCHAR
STARTCHAR ae
ENCODING 230
SWIDTH 853 0
DWIDTH 16 0
BBX 14 10 1 0
BITMAP
3f74
e7e4
ff74
3634
007c
fee4
0f3c
77e4
e7fc
771c
ENDCHAR
STARTCHAR ccedilla
ENCODING 231
SWIDTH 533 0
DWIDTH 10 0
BBX 9 15 1 -5
BITMAP
3600
1c00
fe80
0f00
7780
e780
7700
f080
f880
1c00
1c00
fc00
0080
0080
9c80
ENDCHAR
STARTCHAR egrave
ENCODING 232
SWIDTH 586 0
DWIDTH 11 0
BBX 9 14 1 0
BITMAP
fc00
f000
0000
8000
8080
0080
0080
0080
0000
8000
8000
0000
0000
0000
ENDCHAR
STARTCHAR eacute
ENCODING 233
SWIDTH 586 0
DWIDTH 11 0
BBX 9 14 1 0
BITMAP
0000
0000
0000
0000
0000
0000
0000
0000
0000
8080
8080
8080
8080
0000
ENDCHAR
STARTCHAR ecircumflex
ENCODING 234
SWIDTH 586 0
DWIDTH 11 0
BBX 9 14 1 0
BITMAP
8000
8000
0000
0000
0000
0000
0000
0000
0000
8080
8080
8080
8080
0000
ENDCHAR
STARTCHAR ediaeresis
ENCODING 235
SWIDTH 586 0
DWIDTH 11 0
BBX 9 13 1 0
BITMAP
8000
8000
0000
0000
0000
8000
0000
0000
0000
8080
8080
8080
8080
ENDCHAR
STARTCHAR igrave
ENCODING 236
SWIDTH 266 0
DWIDTH 5 0
BBX 5 14 0 0
BITMAP
00
70
80
78
80
18
00
30
00
30
00
00
00
18
ENDCHAR
STARTCHAR iacute
ENCODING 237
SWIDTH 266 0
DWIDTH 5 0
BBX 5 14 0 0
BITMAP
00
78
00
70
80
e0
80
f8
80
f8
80
e0
00
70
ENDCHAR
STARTCHAR icircumflex
ENCODING 238
SWIDTH 266 0
DWIDTH 5 0
BBX 7 14 -1 0
BITMAP
80
7e
80
1e
00
e0
70
38
00
70
70
70
70
70
ENDCHAR
STARTCHAR idiaeresis
ENCODING 239
SWIDTH 266 0
DWIDTH 5 0
BBX 5 13 0 0
BITMAP
70
70
70
70
70
38
70
e0
00
70
70
70
70
ENDCHAR
STARTCHAR eth
ENCODING 240
SWIDTH 640 0
DWIDTH 12 0
BBX 10 14 1 0
BITMAP
7040
7040
7040
3840
ee00
3800
3800
3800
3800
3800
d8c0
0040
7040
7040
ENDCHAR
STARTCHAR ntilde
ENCODING 241
SWIDTH 586 0
DWIDTH 11 0
BBX 9 14 1 0
BITMAP
7000
7000
7000
0000
0000
0000
0000
0000
8000
8080
c080
c080
c080
c000
ENDCHAR
STARTCHAR ograve
ENCODING 242
SWIDTH 640 0
DWIDTH 12 0
BBX 10 14 1 0
BITMAP
8040
8000
0000
0040
0040
0000
00c0
00c0
80c0
80c0
80c0
80c0
80c0
80c0
ENDCHAR
STARTCHAR oacute
ENCODING 243
SWIDTH 640 0
DWIDTH 12 0
BBX 10 14 1 0
BITMAP
80c0
80c0
8000
0000
0000
0000
0000
0040
8040
80c0
c0c0
c0c0
c0c0
c040
ENDCHAR
STARTCHAR ocircumflex
ENCODING 244
SWIDTH 640 0
DWIDTH 12 0
BBX 10 14 1 0
BITMAP
8040
8000
0000
0000
0000
0000
0000
0040
8040
80c0
c0c0
c0c0
c0c0
c040
ENDCHAR
STARTCHAR otilde
ENCODING 245
SWIDTH 640 0
DWIDTH 12 0
BBX 10 14 1 0
BITMAP
8040
8000
0000
0000
0000
8000
0000
0040
8040
80c0
c0c0
c0c0
c0c0
c040
ENDCHAR
STARTCHAR odiaeresis
ENCODING 246
SWIDTH 640 0
DWIDTH 12 0
BBX 10 13 1 0
BITMAP
8040
8000
0000
8000
8000
0000
0000
0040
8040
80c0
c0c0
c0c0
c0c0
ENDCHAR
STARTCHAR division
ENCODING 247
SWIDTH 586 0
DWIDTH 11 0
BBX 9 8 1 1
BITMAP
c000
8000
8000
0000
0000
0000
0000
0000
ENDCHAR
STARTCHAR oslash
ENCODING 248
SWIDTH 640 0
DWIDTH 12 0
BBX 12 10 0 0
BITMAP
8070
80e0
c0e0
c0e0
c0e0
c070
8070
8010
0010
0010
ENDCHAR
STARTCHAR ugrave
ENCODING 249
SWIDTH 586 0
DWIDTH 11 0
BBX 9 14 1 0
BITMAP
0000
0080
8080
8000
0000
0000
0000
3000
e000
c000
e000
e000
e000
e000
ENDCHAR
STARTCHAR uacute
ENCODING 250
SWIDTH 586 0
DWIDTH 11 0
BBX 9 14 1 0
BITMAP
c000
c080
0000
0000
0000
0000
0080
8080
8080
8080
8080
8080
8080
8080
ENDCHAR
STARTCHAR ucircumflex
ENCODING 251
SWIDTH 586 0
DWIDTH 11 0
BBX 9 14 1 0
BITMAP
8080
8000
8000
0000
0000
0000
0080
8080
8080
8080
8080
8080
8080
8080
ENDCHAR
STARTCHAR udiaeresis
ENCODING 252
SWIDTH 586 0
DWIDTH 11 0
BBX 9 13 1 0
BITMAP
8080
8000
8000
0000
0000
0000
0080
8080
8080
8080
8080
8080
8080
ENDCHAR
STARTCHAR yacute
ENCODING 253
SWIDTH 480 0
DWIDTH 9 0
BBX 9 18 0 -4
BITMAP
8080
8080
8000
8000
0000
0000
0080
8080
8080
8080
8080
8080
8080
8080
8080
8000
8000
0000
ENDCHAR
STARTCHAR thorn
ENCODING 254
SWIDTH 640 0
DWIDTH 12 0
BBX 10 18 1 -4
BITMAP
0000
0000
00c0
80c0
80c0
8040
0040
0040
0000
0000
0000
0000
0000
0000
0040
0040
00c0
00c0
ENDCHAR
STARTCHAR ydiaeresis
ENCODING 255
SWIDTH 480 0
DWIDTH 9 0
BBX 9 17 0 -4
BITMAP
0080
0080
0080
0080
8080
8080
c080
c080
c080
c080
8080
8080
0080
0080
0080
0080
0000
ENDCHAR
ENDFONT
